<svg xmlns="http://www.w3.org/2000/svg" viewBox="0 0 500 500"><g id="freepik--Clock--inject-86"><circle cx="123" cy="78" r="20.99" style="fill:none;stroke:#263238;stroke-linecap:round;stroke-linejoin:round"></circle><polyline points="129.46 86.08 123 78 134.31 66.69" style="fill:none;stroke:#263238;stroke-linecap:round;stroke-linejoin:round"></polyline></g><g id="freepik--gears-2--inject-86"><path d="M411.24,314.48l2.85.65,1-4.38-2.75-.63V310a9.69,9.69,0,0,0-.84-4l2.12-1.69-2.81-3.51-2.05,1.64a9.64,9.64,0,0,0-3.86-1.9V298h-4.5v2.58a9.64,9.64,0,0,0-3.86,1.9l-2.05-1.62-2.8,3.51,2.11,1.68A9.68,9.68,0,0,0,393,310v.15l-2.72.62,1,4.38,2.83-.64a9.81,9.81,0,0,0,2.56,3.09l-1.29,2.68,4.05,2,1.31-2.73a9.63,9.63,0,0,0,1.95.2,10,10,0,0,0,2-.21l1.31,2.73,4.05-2-1.3-2.7A9.62,9.62,0,0,0,411.24,314.48ZM397.07,310a5.58,5.58,0,1,1,5.58,5.58A5.58,5.58,0,0,1,397.07,310Z" style="fill:#6366F1"></path><path d="M360.47,45.89l2.84.65,1-4.39-2.75-.62a.49.49,0,0,0,0-.12,9.7,9.7,0,0,0-.85-4l2.12-1.69L360,32.24,358,33.88a9.64,9.64,0,0,0-3.86-1.9V29.41h-4.49V32a9.57,9.57,0,0,0-3.87,1.91l-2-1.63-2.8,3.52,2.1,1.68a9.61,9.61,0,0,0-.84,3.95c0,.05,0,.1,0,.14l-2.73.62,1,4.39,2.82-.65A9.81,9.81,0,0,0,345.85,49l-1.29,2.68,4.05,2,1.32-2.72a10.37,10.37,0,0,0,1.94.19,10,10,0,0,0,2-.2l1.32,2.72,4.05-1.95L357.93,49A9.88,9.88,0,0,0,360.47,45.89Zm-14.18-4.48A5.59,5.59,0,1,1,351.87,47,5.58,5.58,0,0,1,346.29,41.41Z" style="fill:#263238"></path><path d="M51,299.48l2.85.65,1-4.38-2.75-.63V295a9.69,9.69,0,0,0-.84-4l2.12-1.69-2.81-3.51-2,1.64a9.59,9.59,0,0,0-3.86-1.91V283h-4.5v2.57a9.66,9.66,0,0,0-3.86,1.91l-2.05-1.63-2.8,3.52,2.11,1.68a9.65,9.65,0,0,0-.84,3.95v.15l-2.72.62,1,4.38,2.83-.65a9.47,9.47,0,0,0,2.56,3.09l-1.29,2.68,4,2,1.31-2.73a9.63,9.63,0,0,0,2,.19,10,10,0,0,0,2-.2l1.31,2.73,4.05-2-1.3-2.7A9.62,9.62,0,0,0,51,299.48ZM36.84,295a5.58,5.58,0,1,1,5.58,5.58A5.58,5.58,0,0,1,36.84,295Z" style="fill:#263238"></path><path d="M446.56,196.19l1.81.41.63-2.78-1.74-.4v-.07a6,6,0,0,0-.54-2.51l1.35-1.08-1.78-2.23-1.3,1a6.11,6.11,0,0,0-2.45-1.2v-1.64h-2.86v1.64a6,6,0,0,0-2.45,1.21l-1.29-1-1.78,2.23,1.34,1.07a6,6,0,0,0-.54,2.51v.09l-1.72.39.63,2.78,1.8-.41a6,6,0,0,0,1.62,2l-.82,1.7L439,201.1l.84-1.73a6.18,6.18,0,0,0,1.23.13,6.57,6.57,0,0,0,1.26-.13l.83,1.73,2.57-1.24-.82-1.71A6.11,6.11,0,0,0,446.56,196.19Zm-9-2.84a3.54,3.54,0,1,1,3.54,3.54A3.54,3.54,0,0,1,437.57,193.35Z" style="fill:#263238"></path><path d="M178.45,87.38l1.8.41.64-2.78-1.74-.39v-.08a6,6,0,0,0-.54-2.51L180,81l-1.78-2.23-1.31,1a6,6,0,0,0-2.44-1.21V76.93h-2.86v1.63a6.26,6.26,0,0,0-2.45,1.21l-1.29-1L166.05,81,167.39,82a6,6,0,0,0-.54,2.51v.09l-1.72.4.63,2.78,1.8-.41a6.14,6.14,0,0,0,1.62,2l-.82,1.7,2.57,1.24.84-1.73a6.18,6.18,0,0,0,1.23.12,6.57,6.57,0,0,0,1.26-.13l.83,1.73,2.57-1.24-.82-1.71A6.11,6.11,0,0,0,178.45,87.38Zm-9-2.84A3.54,3.54,0,1,1,173,88.08,3.54,3.54,0,0,1,169.46,84.54Z" style="fill:#6366F1"></path><path d="M243.91,37.84l1.8.41.64-2.78-1.74-.39V35a6,6,0,0,0-.54-2.51l1.35-1.07-1.78-2.23-1.31,1A6,6,0,0,0,239.89,29V27.39H237V29a6.26,6.26,0,0,0-2.45,1.21l-1.29-1-1.78,2.23,1.34,1.06a6,6,0,0,0-.54,2.51v.09l-1.72.4.63,2.78,1.8-.41a6.14,6.14,0,0,0,1.62,2l-.82,1.7,2.57,1.24.83-1.74a5.67,5.67,0,0,0,1.24.13,6.57,6.57,0,0,0,1.26-.13l.83,1.73,2.57-1.24-.82-1.71A6.25,6.25,0,0,0,243.91,37.84Zm-9-2.84a3.54,3.54,0,1,1,3.54,3.54A3.53,3.53,0,0,1,234.92,35Z" style="fill:#263238"></path><path d="M288.45,441.3l1.8.41.64-2.78-1.74-.39v-.08a6,6,0,0,0-.54-2.51l1.35-1.07-1.78-2.23-1.31,1a6,6,0,0,0-2.44-1.21v-1.64h-2.86v1.64a6.26,6.26,0,0,0-2.45,1.21l-1.29-1-1.78,2.23,1.34,1.06a6,6,0,0,0-.54,2.51v.09l-1.72.4.63,2.78,1.8-.41a6.14,6.14,0,0,0,1.62,2l-.82,1.7,2.57,1.24.83-1.74a5.67,5.67,0,0,0,1.24.13,6.57,6.57,0,0,0,1.26-.13l.83,1.73,2.57-1.24-.82-1.71A6.11,6.11,0,0,0,288.45,441.3Zm-9-2.84A3.54,3.54,0,1,1,283,442,3.53,3.53,0,0,1,279.46,438.46Z" style="fill:#263238"></path><path d="M140.5,407.84l1.81.41.63-2.78-1.74-.4V405a6,6,0,0,0-.54-2.51l1.35-1.08-1.78-2.23-1.3,1a6.11,6.11,0,0,0-2.45-1.2v-1.64h-2.86V399a6,6,0,0,0-2.45,1.21l-1.29-1-1.78,2.23,1.34,1.07a6,6,0,0,0-.54,2.51v.09l-1.72.39.63,2.78,1.8-.41a6,6,0,0,0,1.62,2l-.82,1.7,2.57,1.24.84-1.73a6.18,6.18,0,0,0,1.23.13,6.57,6.57,0,0,0,1.26-.13l.83,1.73,2.57-1.24-.82-1.71A6.11,6.11,0,0,0,140.5,407.84Zm-9-2.84a3.54,3.54,0,1,1,3.54,3.54A3.54,3.54,0,0,1,131.51,405Z" style="fill:#6366F1"></path><path d="M411.24,314.48l2.85.65,1-4.38-2.75-.63V310a9.69,9.69,0,0,0-.84-4l2.12-1.69-2.81-3.51-2.05,1.64a9.64,9.64,0,0,0-3.86-1.9V298h-4.5v2.58a9.64,9.64,0,0,0-3.86,1.9l-2.05-1.62-2.8,3.51,2.11,1.68A9.68,9.68,0,0,0,393,310v.15l-2.72.62,1,4.38,2.83-.64a9.81,9.81,0,0,0,2.56,3.09l-1.29,2.68,4.05,2,1.31-2.73a9.63,9.63,0,0,0,1.95.2,10,10,0,0,0,2-.21l1.31,2.73,4.05-2-1.3-2.7A9.62,9.62,0,0,0,411.24,314.48ZM397.07,310a5.58,5.58,0,1,1,5.58,5.58A5.58,5.58,0,0,1,397.07,310Z" style="opacity:0.4"></path><path d="M178.45,87.38l1.8.41.64-2.78-1.74-.39v-.08a6,6,0,0,0-.54-2.51L180,81l-1.78-2.23-1.31,1a6,6,0,0,0-2.44-1.21V76.93h-2.86v1.63a6.26,6.26,0,0,0-2.45,1.21l-1.29-1L166.05,81,167.39,82a6,6,0,0,0-.54,2.51v.09l-1.72.4.63,2.78,1.8-.41a6.14,6.14,0,0,0,1.62,2l-.82,1.7,2.57,1.24.84-1.73a6.18,6.18,0,0,0,1.23.12,6.57,6.57,0,0,0,1.26-.13l.83,1.73,2.57-1.24-.82-1.71A6.11,6.11,0,0,0,178.45,87.38Zm-9-2.84A3.54,3.54,0,1,1,173,88.08,3.54,3.54,0,0,1,169.46,84.54Z" style="opacity:0.4"></path><path d="M140.5,407.84l1.81.41.63-2.78-1.74-.4V405a6,6,0,0,0-.54-2.51l1.35-1.08-1.78-2.23-1.3,1a6.11,6.11,0,0,0-2.45-1.2v-1.64h-2.86V399a6,6,0,0,0-2.45,1.21l-1.29-1-1.78,2.23,1.34,1.07a6,6,0,0,0-.54,2.51v.09l-1.72.39.63,2.78,1.8-.41a6,6,0,0,0,1.62,2l-.82,1.7,2.57,1.24.84-1.73a6.18,6.18,0,0,0,1.23.13,6.57,6.57,0,0,0,1.26-.13l.83,1.73,2.57-1.24-.82-1.71A6.11,6.11,0,0,0,140.5,407.84Zm-9-2.84a3.54,3.54,0,1,1,3.54,3.54A3.54,3.54,0,0,1,131.51,405Z" style="opacity:0.4"></path><path d="M198.45,348.38l1.8.41.64-2.78-1.74-.39v-.08a6,6,0,0,0-.54-2.51L200,342l-1.78-2.23-1.31,1a6,6,0,0,0-2.44-1.21v-1.63h-2.86v1.63a6.26,6.26,0,0,0-2.45,1.21l-1.29-1L186.05,342l1.34,1.06a6,6,0,0,0-.54,2.51v.09l-1.72.4.63,2.78,1.8-.41a6.14,6.14,0,0,0,1.62,2l-.82,1.7,2.57,1.24.84-1.73a6.18,6.18,0,0,0,1.23.12,6.57,6.57,0,0,0,1.26-.13l.83,1.73,2.57-1.24-.82-1.71A6.11,6.11,0,0,0,198.45,348.38Zm-9-2.84a3.54,3.54,0,1,1,3.54,3.54A3.54,3.54,0,0,1,189.46,345.54Z" style="fill:#263238"></path></g><g id="freepik--location-symbol--inject-86"><path d="M472.21,97.64c0,10-18.06,29.36-18.06,29.36s-18.07-19.38-18.07-29.36a18.07,18.07,0,0,1,36.13,0Z" style="fill:none;stroke:#263238;stroke-linecap:round;stroke-linejoin:round"></path><circle cx="454.15" cy="97.64" r="9.03" transform="translate(254.39 517.03) rotate(-76.66)" style="fill:none;stroke:#263238;stroke-linecap:round;stroke-linejoin:round"></circle></g><g id="freepik--robotic-arm--inject-86"><circle cx="190.65" cy="421.41" r="11.12" transform="translate(-242.14 258.24) rotate(-45)" style="fill:none;stroke:#263238;stroke-linecap:round;stroke-linejoin:round"></circle><path d="M196.2,421.41a5.56,5.56,0,1,0-5.55,5.56A5.55,5.55,0,0,0,196.2,421.41Z" style="fill:none;stroke:#263238;stroke-linecap:round;stroke-linejoin:round"></path><line x1="236.89" y1="388.73" x2="244.62" y2="382.47" style="fill:none;stroke:#263238;stroke-linecap:round;stroke-linejoin:round"></line><line x1="234.12" y1="399.87" x2="245.63" y2="399.32" style="fill:none;stroke:#263238;stroke-linecap:round;stroke-linejoin:round"></line><circle cx="228.91" cy="392.74" r="8.65" transform="translate(-83.82 62.83) rotate(-13.23)" style="fill:none;stroke:#263238;stroke-linecap:round;stroke-linejoin:round"></circle><circle cx="228.91" cy="392.74" r="4.32" style="fill:none;stroke:#263238;stroke-linecap:round;stroke-linejoin:round"></circle><circle cx="247.62" cy="380.6" r="3.39" style="fill:none;stroke:#263238;stroke-linecap:round;stroke-linejoin:round"></circle><path d="M249.31,380.6a1.69,1.69,0,1,0-1.69,1.69A1.69,1.69,0,0,0,249.31,380.6Z" style="fill:none;stroke:#263238;stroke-linecap:round;stroke-linejoin:round"></path><circle cx="248.4" cy="397.23" r="3.39" style="fill:none;stroke:#263238;stroke-linecap:round;stroke-linejoin:round"></circle><path d="M250.1,397.23a1.7,1.7,0,1,0-1.7,1.69A1.7,1.7,0,0,0,250.1,397.23Z" style="fill:none;stroke:#263238;stroke-linecap:round;stroke-linejoin:round"></path><polyline points="180.76 426.35 173.97 468.35 210.41 468.35 200.53 427.59" style="fill:none;stroke:#263238;stroke-linecap:round;stroke-linejoin:round"></polyline><rect x="167.36" y="468.33" width="48.81" height="9.32" style="fill:none;stroke:#263238;stroke-linecap:round;stroke-linejoin:round"></rect><line x1="190.65" y1="410.29" x2="219.71" y2="394.53" style="fill:none;stroke:#263238;stroke-linecap:round;stroke-linejoin:round"></line><line x1="201.76" y1="421.41" x2="224" y2="400.41" style="fill:none;stroke:#263238;stroke-linecap:round;stroke-linejoin:round"></line><line x1="234.73" y1="386.07" x2="244.16" y2="380.35" style="fill:none;stroke:#263238;stroke-linecap:round;stroke-linejoin:round"></line><line x1="237.35" y1="396.24" x2="245.02" y2="397.23" style="fill:none;stroke:#263238;stroke-linecap:round;stroke-linejoin:round"></line><polyline points="250.14 383.02 257.88 386.71 258.68 385.41 251.01 380.6" style="fill:none;stroke:#263238;stroke-linecap:round;stroke-linejoin:round"></polyline><polyline points="250.97 394.99 258.62 391.59 259.01 392.96 251.99 397.94" style="fill:none;stroke:#263238;stroke-linecap:round;stroke-linejoin:round"></polyline></g><g id="freepik--Mobile--inject-86"><rect x="76.52" y="352.96" width="32.03" height="57.38" rx="3.25" style="fill:none;stroke:#263238;stroke-linecap:round;stroke-linejoin:round"></rect><path d="M98.4,359h0a1.94,1.94,0,0,1-1.94,1.94H89.2A1.94,1.94,0,0,1,87.26,359H79.88v45.37H105.2V359Z" style="fill:none;stroke:#263238;stroke-linecap:round;stroke-linejoin:round"></path><line x1="80.69" y1="392.98" x2="105.19" y2="375.48" style="fill:none;stroke:#263238;stroke-linecap:round;stroke-linejoin:round"></line><circle cx="92.87" cy="356.48" r="0.75" style="fill:none;stroke:#263238;stroke-linecap:round;stroke-linejoin:round"></circle></g><g id="freepik--Box--inject-86"><line x1="366.91" y1="373.41" x2="366.91" y2="407.98" style="fill:none;stroke:#263238;stroke-linecap:round;stroke-linejoin:round"></line><polygon points="407.28 381.65 366.91 408.28 396.34 430.21 441 401.87 407.28 381.65" style="fill:none;stroke:#263238;stroke-linecap:round;stroke-linejoin:round"></polygon><polygon points="407.28 346.79 366.91 373.41 396.34 395.34 441 367 407.28 346.79" style="fill:none;stroke:#263238;stroke-linecap:round;stroke-linejoin:round"></polygon><line x1="396.34" y1="395.34" x2="396.34" y2="430" style="fill:none;stroke:#263238;stroke-linecap:round;stroke-linejoin:round"></line><line x1="441" y1="367" x2="441" y2="401.86" style="fill:none;stroke:#263238;stroke-linecap:round;stroke-linejoin:round"></line><line x1="382.17" y1="384.35" x2="422.93" y2="356.57" style="fill:none;stroke:#263238;stroke-linecap:round;stroke-linejoin:round"></line></g><g id="freepik--gears-1--inject-86"><path d="M351,181.42l10.57,2.42,3.72-16.31-10.21-2.33c0-.15,0-.29,0-.44A35.82,35.82,0,0,0,352,150l1.46-15.36-4-4-7.65,6.1a35.81,35.81,0,0,0-14.35-7.08v-9.58H310.71v9.58a35.83,35.83,0,0,0-14.38,7.1l-7.59-6.06-10.43,13.07,7.85,6.26A35.87,35.87,0,0,0,283,164.76c0,.18,0,.36,0,.54l-10.12,2.31,3.72,16.3,10.51-2.4A36.16,36.16,0,0,0,296.68,193l-4.8,10,15.06,7.26,4.89-10.15a36,36,0,0,0,7.24.73,36.68,36.68,0,0,0,7.39-.76l4.89,10.14,15.06-7.25-4.83-10A36.12,36.12,0,0,0,351,181.42Zm-52.71-16.66a20.75,20.75,0,1,1,20.75,20.75A20.75,20.75,0,0,1,298.32,164.76Z" style="fill:#fff;stroke:#263238;stroke-linecap:round;stroke-linejoin:round"></path><polygon points="291.88 202.97 295.88 206.97 300.68 197 296.68 193 291.88 202.97" style="fill:#fff;stroke:#263238;stroke-linecap:round;stroke-linejoin:round"></polygon><polygon points="335.35 214.19 331.35 210.19 328.47 203.84 330.46 204.05 335.35 214.19" style="fill:#fff;stroke:#263238;stroke-linecap:round;stroke-linejoin:round"></polygon><polygon points="369.32 171.54 365.32 167.53 356.18 165.41 356.96 169.85 369.32 171.54" style="fill:#fff;stroke:#263238;stroke-linecap:round;stroke-linejoin:round"></polygon><path d="M355,185.43l10.56,2.41,3.72-16.3-10.21-2.33c0-.15,0-.3,0-.45A36,36,0,0,0,356,154l7.88-6.29-10.43-13.07-7.64,6.1a36,36,0,0,0-14.36-7.08v-9.57H314.71v9.57a36.05,36.05,0,0,0-14.37,7.1l-7.6-6.06-10.42,13.08,7.84,6.25A35.86,35.86,0,0,0,287,168.76c0,.19,0,.36,0,.55l-10.12,2.3,3.72,16.31,10.52-2.4A36.2,36.2,0,0,0,300.68,197l-4.8,10L311,214.23l4.88-10.15a36.29,36.29,0,0,0,14.63,0l4.89,10.14,15.07-7.25-4.84-10A36.24,36.24,0,0,0,355,185.43Zm-52.72-16.67a20.76,20.76,0,1,1,20.75,20.76A20.75,20.75,0,0,1,302.32,168.76Z" style="fill:#263238;stroke:#263238;stroke-linecap:round;stroke-linejoin:round"></path><polygon points="314.71 124.13 310.71 120.12 327.43 120.12 331.43 124.13 314.71 124.13" style="fill:#fff;stroke:#263238;stroke-linecap:round;stroke-linejoin:round"></polygon><polygon points="314.71 133.7 310.71 129.7 310.71 120.12 314.71 124.13 314.71 133.7" style="fill:#fff;stroke:#263238;stroke-linecap:round;stroke-linejoin:round"></polygon><polygon points="282.32 147.82 278.31 143.81 288.74 130.74 292.74 134.74 282.32 147.82" style="fill:#fff;stroke:#263238;stroke-linecap:round;stroke-linejoin:round"></polygon><polygon points="287.04 169.31 283.04 165.3 272.92 167.61 276.92 171.62 287.04 169.31" style="fill:#fff;stroke:#263238;stroke-linecap:round;stroke-linejoin:round"></polygon><polygon points="280.64 187.92 276.64 183.91 272.92 167.61 276.92 171.62 280.64 187.92" style="fill:#fff;stroke:#263238;stroke-linecap:round;stroke-linejoin:round"></polygon><path d="M286.66,229.16l8.4,1.91L298,218.13l-8.11-1.86c0-.11,0-.23,0-.35a28.53,28.53,0,0,0-2.5-11.69L288.57,192l-3.18-3.18-6.07,4.84a28.63,28.63,0,0,0-11.4-5.62v-7.61H254.64v7.61a28.53,28.53,0,0,0-11.42,5.63l-6-4.8-8.28,10.38,6.23,5a28.63,28.63,0,0,0-2.49,11.67c0,.15,0,.29,0,.43l-8,1.84,3,12.94,8.35-1.9a28.9,28.9,0,0,0,7.57,9.12l-3.81,7.92,12,5.76,3.88-8.06a28.68,28.68,0,0,0,5.75.58,29.07,29.07,0,0,0,5.87-.6L271,252l12-5.76-3.83-8A28.65,28.65,0,0,0,286.66,229.16ZM244.8,215.92a16.48,16.48,0,1,1,16.48,16.49A16.48,16.48,0,0,1,244.8,215.92Z" style="fill:#fff;stroke:#263238;stroke-linecap:round;stroke-linejoin:round"></path><polygon points="239.69 246.27 242.87 249.45 246.68 241.53 243.5 238.35 239.69 246.27" style="fill:#fff;stroke:#263238;stroke-linecap:round;stroke-linejoin:round"></polygon><polygon points="274.21 255.18 271.03 252 268.74 246.96 270.33 247.13 274.21 255.18" style="fill:#fff;stroke:#263238;stroke-linecap:round;stroke-linejoin:round"></polygon><polygon points="301.19 221.31 298.01 218.13 290.75 216.44 291.38 219.97 301.19 221.31" style="fill:#fff;stroke:#263238;stroke-linecap:round;stroke-linejoin:round"></polygon><path d="M289.84,232.34l8.4,1.91,2.95-12.94-8.11-1.86c0-.11,0-.23,0-.35a28.53,28.53,0,0,0-2.5-11.69l6.26-5L288.57,192l-6.07,4.84a28.5,28.5,0,0,0-11.4-5.62v-7.61H257.82v7.61a28.53,28.53,0,0,0-11.42,5.63l-6-4.81-8.28,10.39,6.23,5a28.63,28.63,0,0,0-2.49,11.67c0,.15,0,.29,0,.43l-8,1.84,2.95,12.94,8.35-1.9a28.77,28.77,0,0,0,7.57,9.12l-3.81,7.92,12,5.76,3.88-8.06a28.68,28.68,0,0,0,5.75.58,29.15,29.15,0,0,0,5.87-.6l3.88,8.05,12-5.76-3.83-8A28.65,28.65,0,0,0,289.84,232.34ZM248,219.1a16.48,16.48,0,1,1,16.48,16.49A16.48,16.48,0,0,1,248,219.1Z" style="fill:#263238;stroke:#263238;stroke-linecap:round;stroke-linejoin:round"></path><polygon points="257.82 183.65 254.64 180.47 267.92 180.47 271.1 183.65 257.82 183.65" style="fill:#fff;stroke:#263238;stroke-linecap:round;stroke-linejoin:round"></polygon><polygon points="257.82 191.26 254.64 188.08 254.64 180.47 257.82 183.65 257.82 191.26" style="fill:#fff;stroke:#263238;stroke-linecap:round;stroke-linejoin:round"></polygon><polygon points="232.09 202.47 228.91 199.29 237.19 188.91 240.37 192.08 232.09 202.47" style="fill:#fff;stroke:#263238;stroke-linecap:round;stroke-linejoin:round"></polygon><polygon points="235.84 219.53 232.66 216.35 224.63 218.19 227.81 221.37 235.84 219.53" style="fill:#fff;stroke:#263238;stroke-linecap:round;stroke-linejoin:round"></polygon><polygon points="230.76 234.31 227.58 231.13 224.63 218.19 227.81 221.37 230.76 234.31" style="fill:#fff;stroke:#263238;stroke-linecap:round;stroke-linejoin:round"></polygon></g></svg>